<svg width="454.202" height="80.004" viewBox="0 0 454.202 80.004" xmlns="http://www.w3.org/2000/svg"><g id="svgGroup" stroke-linecap="round" fill-rule="evenodd" font-size="9pt" stroke="#1a202c" stroke-width="0.25mm" fill="#1a202c" style="stroke:#1a202c;stroke-width:0.25mm;fill:#1a202c"><path d="M 150 33.402 L 137.2 33.402 L 137.2 1.602 A 1.927 1.927 0 0 0 137.077 0.894 C 136.896 0.433 136.521 0.134 135.994 0.036 A 2.172 2.172 0 0 0 135.6 0.002 L 125.3 0.002 C 124.273 0.002 123.758 0.442 123.632 1.197 A 2.455 2.455 0 0 0 123.6 1.602 L 123.6 78.402 A 2.089 2.089 0 0 0 123.708 79.106 C 123.902 79.648 124.366 79.968 125.167 80 A 3.391 3.391 0 0 0 125.3 80.002 L 135.6 80.002 A 1.927 1.927 0 0 0 136.309 79.879 C 136.769 79.698 137.069 79.322 137.166 78.796 A 2.172 2.172 0 0 0 137.2 78.402 L 137.2 46.602 L 150 46.602 L 150 78.402 A 1.927 1.927 0 0 0 150.123 79.111 C 150.305 79.571 150.68 79.871 151.207 79.968 A 2.172 2.172 0 0 0 151.6 80.002 L 161.9 80.002 C 162.928 80.002 163.442 79.562 163.569 78.808 A 2.455 2.455 0 0 0 163.6 78.402 L 163.6 1.602 A 2.089 2.089 0 0 0 163.492 0.898 C 163.298 0.357 162.835 0.036 162.033 0.005 A 3.391 3.391 0 0 0 161.9 0.002 L 151.6 0.002 A 1.927 1.927 0 0 0 150.892 0.125 C 150.431 0.307 150.132 0.682 150.035 1.209 A 2.172 2.172 0 0 0 150 1.602 L 150 33.402 Z M 246 33.402 L 233.2 33.402 L 233.2 1.602 A 1.927 1.927 0 0 0 233.077 0.894 C 232.896 0.433 232.521 0.134 231.994 0.036 A 2.172 2.172 0 0 0 231.6 0.002 L 221.3 0.002 C 220.273 0.002 219.758 0.442 219.632 1.197 A 2.455 2.455 0 0 0 219.6 1.602 L 219.6 78.402 A 2.089 2.089 0 0 0 219.708 79.106 C 219.902 79.648 220.366 79.968 221.167 80 A 3.391 3.391 0 0 0 221.3 80.002 L 231.6 80.002 A 1.927 1.927 0 0 0 232.309 79.879 C 232.769 79.698 233.069 79.322 233.166 78.796 A 2.172 2.172 0 0 0 233.2 78.402 L 233.2 46.602 L 246 46.602 L 246 78.402 A 1.927 1.927 0 0 0 246.123 79.111 C 246.305 79.571 246.68 79.871 247.207 79.968 A 2.172 2.172 0 0 0 247.6 80.002 L 257.9 80.002 C 258.928 80.002 259.442 79.562 259.569 78.808 A 2.455 2.455 0 0 0 259.6 78.402 L 259.6 1.602 A 2.089 2.089 0 0 0 259.492 0.898 C 259.298 0.357 258.835 0.036 258.033 0.005 A 3.391 3.391 0 0 0 257.9 0.002 L 247.6 0.002 A 1.927 1.927 0 0 0 246.892 0.125 C 246.431 0.307 246.132 0.682 246.035 1.209 A 2.172 2.172 0 0 0 246 1.602 L 246 33.402 Z M 391 2.002 L 391 62.802 C 391 64.95 390.114 66.212 388.443 66.638 A 5.848 5.848 0 0 1 387 66.802 L 381.8 66.802 A 5.614 5.614 0 0 1 380.172 66.587 C 378.621 66.116 377.8 64.869 377.8 62.802 L 377.8 2.002 C 377.8 0.902 376.9 0.002 375.8 0.002 L 366.2 0.002 C 365.1 0.002 364.2 0.902 364.2 2.002 L 364.2 65.602 C 364.2 73.372 367.616 78.135 374.109 79.554 A 21.06 21.06 0 0 0 378.6 80.002 L 389.8 80.002 C 397.57 80.002 402.333 76.586 403.752 70.093 A 21.06 21.06 0 0 0 404.2 65.602 L 404.2 2.002 C 404.2 0.902 403.3 0.002 402.2 0.002 L 393 0.002 C 391.9 0.002 391 0.902 391 2.002 Z M 73.6 14.402 L 73.6 38.002 A 4.522 4.522 0 0 0 73.814 39.441 C 74.108 40.321 74.706 40.974 75.608 41.42 A 5.454 5.454 0 0 0 76.3 41.702 L 100 49.502 L 100 62.802 C 100 64.95 99.114 66.212 97.443 66.638 A 5.848 5.848 0 0 1 96 66.802 L 91.2 66.802 C 89.15 66.802 87.772 65.928 87.343 64.123 A 5.713 5.713 0 0 1 87.2 62.802 L 87.2 55.102 C 87.2 54.203 86.866 53.704 86.143 53.553 A 2.65 2.65 0 0 0 85.6 53.502 L 75.2 53.502 A 2.153 2.153 0 0 0 74.511 53.603 C 73.931 53.8 73.6 54.286 73.6 55.102 L 73.6 65.602 A 19.25 19.25 0 0 0 74.429 71.479 C 75.829 75.848 78.979 78.593 83.685 79.584 A 20.945 20.945 0 0 0 88 80.002 L 99.2 80.002 C 106.97 80.002 111.733 76.586 113.152 70.093 A 21.06 21.06 0 0 0 113.6 65.602 L 113.6 42.502 C 113.6 40.602 112.7 39.502 111 38.802 L 87.2 31.002 L 87.2 17.202 A 5.117 5.117 0 0 1 87.449 15.551 C 87.877 14.294 88.841 13.521 90.221 13.282 A 5.737 5.737 0 0 1 91.2 13.202 L 96 13.202 C 98.148 13.202 99.41 14.088 99.836 15.759 A 5.848 5.848 0 0 1 100 17.202 L 100 25.002 A 1.927 1.927 0 0 0 100.123 25.711 C 100.305 26.171 100.68 26.471 101.207 26.568 A 2.172 2.172 0 0 0 101.6 26.602 L 112 26.602 A 2.238 2.238 0 0 0 112.617 26.524 C 113.289 26.331 113.6 25.791 113.6 25.002 L 113.6 14.402 C 113.6 6.633 110.184 1.869 103.692 0.45 A 21.06 21.06 0 0 0 99.2 0.002 L 88 0.002 C 80.191 0.002 75.343 3.528 73.99 10.224 A 21.108 21.108 0 0 0 73.6 14.402 Z M 317.2 78.302 L 300.6 1.402 A 2.285 2.285 0 0 0 300.406 0.817 C 300.116 0.243 299.598 0.002 298.9 0.002 L 285 0.002 A 2.134 2.134 0 0 0 284.282 0.113 C 283.78 0.292 283.441 0.699 283.3 1.402 L 266.7 78.302 C 266.4 79.402 266.9 80.002 268 80.002 L 278.7 80.002 A 1.822 1.822 0 0 0 279.318 79.904 C 279.838 79.718 280.152 79.27 280.3 78.602 L 283 64.002 L 300.8 64.002 L 303.6 78.602 A 2.436 2.436 0 0 0 303.829 79.241 C 304.099 79.735 304.543 80.002 305.2 80.002 L 315.8 80.002 A 2.625 2.625 0 0 0 316.326 79.954 C 317.039 79.808 317.313 79.329 317.237 78.56 A 3.233 3.233 0 0 0 317.2 78.303 Z M 171.6 1.602 L 171.6 11.602 A 1.927 1.927 0 0 0 171.723 12.311 C 171.905 12.771 172.28 13.071 172.807 13.168 A 2.172 2.172 0 0 0 173.2 13.202 L 184.8 13.202 L 184.8 78.402 A 2.238 2.238 0 0 0 184.878 79.019 C 185.071 79.691 185.611 80.002 186.4 80.002 L 196.8 80.002 C 197.7 80.002 198.198 79.668 198.35 78.944 A 2.65 2.65 0 0 0 198.4 78.402 L 198.4 13.202 L 210 13.202 A 2.238 2.238 0 0 0 210.617 13.124 C 211.289 12.931 211.6 12.391 211.6 11.602 L 211.6 1.602 A 2.153 2.153 0 0 0 211.499 0.913 C 211.303 0.333 210.817 0.002 210 0.002 L 173.2 0.002 A 1.927 1.927 0 0 0 172.492 0.125 C 172.031 0.307 171.732 0.682 171.635 1.209 A 2.172 2.172 0 0 0 171.6 1.602 Z M 316.2 1.602 L 316.2 11.602 A 1.927 1.927 0 0 0 316.323 12.311 C 316.505 12.771 316.88 13.071 317.407 13.168 A 2.172 2.172 0 0 0 317.8 13.202 L 329.4 13.202 L 329.4 78.402 A 2.238 2.238 0 0 0 329.478 79.019 C 329.671 79.691 330.211 80.002 331 80.002 L 341.4 80.002 C 342.3 80.002 342.798 79.668 342.95 78.944 A 2.65 2.65 0 0 0 343 78.402 L 343 13.202 L 354.6 13.202 A 2.238 2.238 0 0 0 355.217 13.124 C 355.889 12.931 356.2 12.391 356.2 11.602 L 356.2 1.602 A 2.153 2.153 0 0 0 356.099 0.913 C 355.903 0.333 355.417 0.002 354.6 0.002 L 317.8 0.002 A 1.927 1.927 0 0 0 317.092 0.125 C 316.631 0.307 316.332 0.682 316.235 1.209 A 2.172 2.172 0 0 0 316.2 1.602 Z M 1.6 80.002 L 25.6 80.002 C 33.37 80.002 38.133 76.586 39.552 70.093 A 21.06 21.06 0 0 0 40 65.602 L 40 14.502 C 40 6.677 36.536 1.832 29.952 0.428 A 20.881 20.881 0 0 0 25.6 0.002 L 1.6 0.002 A 2.238 2.238 0 0 0 0.983 0.08 C 0.312 0.273 0 0.813 0 1.602 L 0 78.402 C 0 79.302 0.335 79.8 1.058 79.952 A 2.65 2.65 0 0 0 1.6 80.002 Z M 415.8 80.002 L 426.2 80.002 A 2.238 2.238 0 0 0 426.817 79.924 C 427.489 79.731 427.8 79.191 427.8 78.402 L 427.8 53.202 L 439.8 53.202 A 19.25 19.25 0 0 0 445.677 52.373 C 450.046 50.973 452.791 47.823 453.782 43.117 A 20.945 20.945 0 0 0 454.2 38.802 L 454.2 14.402 C 454.2 6.633 450.784 1.869 444.292 0.45 A 21.06 21.06 0 0 0 439.8 0.002 L 415.8 0.002 A 1.927 1.927 0 0 0 415.092 0.125 C 414.631 0.307 414.332 0.682 414.235 1.209 A 2.172 2.172 0 0 0 414.2 1.602 L 414.2 78.402 A 1.927 1.927 0 0 0 414.323 79.111 C 414.505 79.571 414.88 79.871 415.407 79.968 A 2.172 2.172 0 0 0 415.8 80.002 Z M 50 1.602 L 50 78.402 A 2.153 2.153 0 0 0 50.101 79.092 C 50.298 79.671 50.784 80.002 51.6 80.002 L 62 80.002 A 1.927 1.927 0 0 0 62.709 79.879 C 63.169 79.698 63.469 79.322 63.566 78.796 A 2.172 2.172 0 0 0 63.6 78.402 L 63.6 1.602 A 1.927 1.927 0 0 0 63.477 0.894 C 63.296 0.433 62.921 0.134 62.394 0.036 A 2.172 2.172 0 0 0 62 0.002 L 51.6 0.002 A 2.238 2.238 0 0 0 50.983 0.08 C 50.312 0.273 50 0.813 50 1.602 Z M 13.6 66.802 L 13.6 13.202 L 22.8 13.202 A 5.298 5.298 0 0 1 24.452 13.439 C 25.637 13.828 26.391 14.692 26.674 16.011 A 6.166 6.166 0 0 1 26.8 17.302 L 26.8 62.802 C 26.8 64.95 25.914 66.212 24.243 66.638 A 5.848 5.848 0 0 1 22.8 66.802 L 13.6 66.802 Z M 298.3 52.402 L 285.5 52.402 L 291.9 17.502 L 298.3 52.402 Z M 427.8 40.002 L 427.8 13.202 L 436.6 13.202 C 438.748 13.202 440.01 14.088 440.436 15.759 A 5.848 5.848 0 0 1 440.6 17.202 L 440.6 36.002 C 440.6 38.053 439.726 39.431 437.921 39.86 A 5.713 5.713 0 0 1 436.6 40.002 L 427.8 40.002 Z" vector-effect="non-scaling-stroke"/></g></svg>